<svg width="15" height="16" viewBox="0 0 15 16" fill="none" xmlns="http://www.w3.org/2000/svg">
<path d="M6.48923 16V8.57795L0 4.82636V11.3359C0 11.6333 0.0709759 11.9037 0.212928 12.147C0.35488 12.3904 0.554288 12.5864 0.811153 12.7351L6.48923 16ZM8.11153 16L13.7896 12.7351C14.0465 12.5864 14.2459 12.3904 14.3878 12.147C14.5298 11.9037 14.6008 11.6333 14.6008 11.3359V4.82636L8.11153 8.57795V16ZM11.3359 4.84664L13.7288 3.4474L8.11153 0.223067C7.85467 0.0743557 7.58428 0 7.30038 0C7.01648 0 6.74609 0.0743557 6.48923 0.223067L4.8872 1.13561L11.3359 4.84664ZM7.30038 7.17871L9.71356 5.79975L3.28517 2.06844L0.851711 3.46768L7.30038 7.17871Z" fill="#68DA6A"/>
</svg>
